<mxfile host="app.diagrams.net" modified="2023-11-28T17:14:02.544Z" agent="Mozilla/5.0 (X11; Linux x86_64) AppleWebKit/537.36 (KHTML, like Gecko) Chrome/114.0.0.0 Safari/537.36" version="22.1.4" etag="Cu15NJZehGJPa_V9KGHh" type="github">
  <diagram name="PÃ¡gina-1" id="y6GRCF-LLsMIT19p6tgR">
    <mxGraphModel>
      <root>
        <mxCell id="0" />
        <mxCell id="1" parent="0" />
      </root>
    </mxGraphModel>
  </diagram>
</mxfile>
